{"glyphs":{":":{"x_min":0,"x_max":283,"ha":283,"o":"m 151 -14 q 137 -14 124 -9 q 111 -3 102 6 q 92 15 87 27 q 82 40 82 55 q 82 70 87 83 q 92 96 102 105 q 111 115 124 120 q 137 125 151 125 q 166 125 178 120 q 191 115 200 106 q 210 97 215 84 q 221 71 221 56 q 221 41 215 28 q 210 15 200 6 q 191 -3 178 -9 q 166 -14 151 -14 z m 151 291 q 137 291 124 296 q 111 301 102 310 q 92 319 87 332 q 82 344 82 359 q 82 375 87 387 q 92 400 102 410 q 111 419 124 424 q 137 429 151 429 q 166 429 178 424 q 191 419 200 410 q 210 401 215 388 q 221 375 221 360 q 221 345 215 332 q 210 319 200 310 q 191 301 178 296 q 166 291 151 291 z"},"$":{"x_min":0,"x_max":522,"ha":522,"o":"m 245 241 q 212 253 180 265 q 149 278 125 296 q 100 314 85 341 q 70 367 70 407 q 70 445 84 474 q 98 502 122 523 q 146 543 179 555 q 211 566 248 569 l 248 655 l 286 655 l 286 570 q 324 569 355 559 q 387 550 410 534 q 433 519 445 498 q 458 478 458 456 q 458 440 453 430 q 448 420 439 413 q 431 407 421 404 q 411 401 402 401 q 390 401 380 405 q 371 409 364 416 q 356 422 353 432 q 349 441 349 452 q 349 465 355 480 q 361 495 375 508 q 366 514 355 519 q 344 523 332 526 q 320 529 308 530 q 296 532 286 532 l 286 326 q 319 315 352 302 q 385 289 411 270 q 437 250 452 224 q 468 197 468 158 q 468 120 453 90 q 438 61 413 40 q 388 20 354 8 q 320 -4 283 -7 l 283 -98 l 245 -98 l 245 -9 q 203 -8 168 3 q 133 14 107 31 q 82 48 68 71 q 54 93 54 117 q 54 144 70 162 q 86 180 114 180 q 125 180 136 176 q 146 173 154 166 q 162 159 167 148 q 172 137 172 122 q 172 105 165 90 q 158 75 142 63 q 165 45 192 38 q 220 30 245 29 z m 148 434 q 148 414 154 400 q 160 385 172 375 q 185 364 203 355 q 222 346 248 337 l 248 531 q 227 529 209 522 q 191 516 178 504 q 164 493 156 475 q 148 458 148 434 z m 380 129 q 380 149 374 164 q 368 179 356 190 q 344 202 326 211 q 308 221 283 229 l 283 31 q 303 33 321 40 q 339 47 352 59 q 365 71 373 88 q 380 105 380 129 z"},"?":{"x_min":0,"x_max":461,"ha":461,"o":"m 124 632 q 137 617 146 600 q 154 583 154 566 q 154 555 149 545 q 145 535 137 527 q 130 520 120 516 q 109 512 97 512 q 86 512 76 515 q 65 519 57 526 q 49 534 44 544 q 39 555 39 570 q 39 592 52 616 q 64 641 88 662 q 112 682 148 696 q 185 709 231 709 q 278 709 314 696 q 350 682 374 659 q 399 637 412 607 q 424 578 424 546 q 424 484 374 429 q 354 407 328 386 q 302 366 279 343 q 256 321 241 294 q 226 268 226 233 q 226 227 226 218 q 227 208 229 199 q 221 196 212 195 q 203 193 194 193 q 187 224 187 250 q 187 276 193 296 q 199 317 209 334 q 219 351 232 365 q 244 379 257 393 q 272 409 285 425 q 298 440 308 458 q 317 477 323 498 q 329 520 329 548 q 329 582 321 605 q 313 628 299 643 q 285 657 265 664 q 245 670 221 670 q 191 670 166 661 q 140 652 124 632 z m 212 -14 q 198 -14 186 -9 q 174 -4 165 5 q 156 14 151 26 q 146 38 146 53 q 146 67 151 80 q 156 92 165 101 q 174 110 187 115 q 199 120 213 120 q 227 120 239 115 q 251 110 260 102 q 270 93 275 81 q 280 68 280 54 q 280 39 275 27 q 270 14 260 5 q 251 -4 239 -9 q 227 -14 212 -14 z"},"<":{"x_min":0,"x_max":553,"ha":553,"o":"m 130 207 l 487 60 l 471 20 l 63 190 l 63 226 l 471 396 l 487 357 l 130 209 z"},"'":{"x_min":0,"x_max":234,"ha":234,"o":"m 68 709 q 81 710 93 711 q 105 712 117 712 q 129 712 141 711 q 153 710 166 709 l 132 444 q 125 442 117 442 q 110 442 103 444 z"},"=":{"x_min":0,"x_max":553,"ha":553,"o":"m 489 132 l 489 89 l 63 89 l 63 132 z m 489 327 l 489 284 l 63 284 l 63 327 z"},"a":{"x_min":0,"x_max":477,"ha":477,"o":"m 455 0 q 434 -4 417 -5 q 399 -6 389 -6 q 363 -6 346 -2 q 329 2 319 10 q 310 18 305 29 q 301 41 300 54 l 297 54 q 284 35 268 22 q 252 9 235 1 q 218 -7 200 -10 q 183 -14 165 -14 q 135 -14 111 -6 q 88 2 72 17 q 56 32 47 52 q 39 72 39 97 q 39 165 106 200 q 172 235 298 238 q 298 260 299 277 q 299 295 299 312 q 299 356 281 374 q 262 392 223 392 q 196 392 176 386 q 155 380 142 371 q 153 359 159 347 q 165 334 165 322 q 165 302 151 288 q 138 274 115 274 q 105 274 96 277 q 87 280 80 287 q 73 293 69 302 q 65 312 65 325 q 65 345 76 364 q 87 382 109 397 q 130 412 163 420 q 195 429 239 429 q 274 429 301 422 q 328 416 347 400 q 366 384 375 357 q 385 331 385 292 q 385 282 385 260 q 384 238 384 211 q 383 184 383 156 q 383 129 383 108 q 383 86 384 72 q 385 58 389 49 q 393 41 400 37 q 408 33 422 33 q 435 33 455 36 z m 298 201 q 245 200 212 193 q 179 187 161 175 q 143 163 137 146 q 130 128 130 106 q 130 68 146 50 q 162 31 190 31 q 205 31 224 37 q 243 43 259 58 q 276 72 287 96 q 298 119 298 154 z"},"L":{"x_min":0,"x_max":623,"ha":623,"o":"m 339 39 q 377 39 406 42 q 435 45 457 53 q 479 61 494 75 q 510 90 521 113 q 532 136 540 169 q 548 202 555 247 l 589 247 l 578 0 l 32 0 l 32 39 l 129 39 l 129 670 l 32 670 l 32 709 l 322 709 l 322 670 l 225 670 l 225 39 z"},"3":{"x_min":0,"x_max":538,"ha":538,"o":"m 156 202 q 154 212 154 222 q 153 232 153 242 q 260 250 313 291 q 367 332 367 414 q 367 451 356 475 q 346 499 329 513 q 312 527 291 532 q 269 538 246 538 q 217 538 186 530 q 156 521 131 502 q 145 490 152 475 q 158 460 158 446 q 158 436 154 426 q 150 417 144 409 q 137 402 127 398 q 117 394 105 394 q 96 394 86 396 q 76 399 67 406 q 59 413 53 423 q 48 434 48 450 q 48 475 62 497 q 76 520 103 537 q 129 555 167 565 q 205 576 251 576 q 303 576 343 563 q 383 550 411 528 q 438 506 453 476 q 467 447 467 413 q 467 384 457 358 q 446 332 426 310 q 406 288 378 270 q 350 252 315 239 l 315 236 q 349 229 380 214 q 411 199 434 176 q 457 152 471 121 q 484 89 484 50 q 484 9 468 -28 q 452 -64 421 -91 q 389 -119 343 -135 q 296 -151 236 -151 q 183 -151 145 -139 q 106 -127 82 -109 q 57 -90 46 -69 q 34 -47 34 -27 q 34 -14 38 -3 q 42 8 51 17 q 59 25 70 30 q 81 35 95 35 q 106 35 116 32 q 126 28 135 21 q 143 14 147 3 q 152 -7 152 -22 q 152 -39 145 -54 q 138 -70 123 -81 q 135 -91 149 -97 q 164 -104 179 -107 q 194 -110 208 -112 q 222 -113 234 -113 q 259 -113 285 -107 q 312 -102 333 -86 q 355 -70 369 -40 q 383 -9 383 41 q 383 80 373 110 q 362 141 340 162 q 318 183 283 194 q 249 205 202 205 q 191 205 180 204 q 168 203 156 202 z"},";":{"x_min":0,"x_max":283,"ha":283,"o":"m 151 291 q 137 291 124 296 q 111 301 102 310 q 92 319 87 332 q 82 344 82 359 q 82 375 87 387 q 92 400 102 410 q 111 419 124 424 q 137 429 151 429 q 166 429 178 424 q 191 419 200 410 q 210 401 215 388 q 221 375 221 360 q 221 345 215 332 q 210 319 200 310 q 191 301 178 296 q 166 291 151 291 z m 107 -142 q 125 -126 140 -110 q 155 -94 167 -77 q 179 -60 186 -42 q 192 -23 192 -3 q 192 4 192 10 q 191 16 190 22 l 187 22 q 179 4 164 -4 q 148 -12 132 -12 q 121 -12 110 -8 q 99 -4 90 4 q 82 11 76 22 q 71 34 71 48 q 71 61 75 73 q 80 86 88 96 q 97 106 110 113 q 123 120 140 120 q 158 120 175 112 q 192 105 206 91 q 220 77 228 56 q 237 35 237 8 q 237 -38 211 -83 q 185 -127 132 -170 q 124 -164 118 -157 q 112 -151 107 -142 z"},"J":{"x_min":0,"x_max":465,"ha":465,"o":"m 445 670 l 348 670 l 348 177 q 348 141 334 106 q 321 71 296 44 q 271 17 235 0 q 199 -17 155 -17 q 122 -17 93 -7 q 65 2 44 18 q 23 34 12 54 q 0 75 0 98 q 0 112 5 124 q 10 135 18 142 q 26 150 36 154 q 47 158 59 158 q 71 158 81 154 q 91 149 98 141 q 105 134 109 124 q 113 113 113 102 q 113 86 105 70 q 97 54 83 43 q 114 22 156 22 q 176 22 194 29 q 212 35 225 49 q 238 63 246 86 q 253 109 253 143 l 253 670 l 150 670 l 150 709 l 445 709 z"},"V":{"x_min":0,"x_max":691,"ha":691,"o":"m 373 147 l 375 147 l 570 670 l 473 670 l 473 709 l 706 709 l 706 670 l 618 670 l 364 -7 l 325 -7 l 87 670 l -10 670 l -10 709 l 291 709 l 291 670 l 189 670 z"},"\"":{"x_min":0,"x_max":405,"ha":405,"o":""},"7":{"x_min":0,"x_max":504,"ha":504,"o":"m 455 562 l 455 527 l 345 265 q 323 212 309 171 q 294 129 285 98 q 276 66 273 42 q 269 19 269 3 q 269 -17 273 -28 q 277 -39 281 -47 q 286 -55 290 -63 q 294 -72 294 -86 q 294 -101 289 -112 q 285 -123 277 -131 q 269 -138 259 -142 q 249 -146 238 -146 q 226 -146 215 -142 q 204 -137 195 -128 q 186 -120 180 -107 q 175 -94 175 -78 q 175 -60 181 -36 q 188 -12 198 17 q 209 46 224 80 q 239 114 255 152 l 394 480 l 203 480 q 168 480 147 478 q 127 475 115 464 q 104 454 98 433 q 92 413 86 377 l 49 377 l 49 562 z"},"S":{"x_min":0,"x_max":561,"ha":561,"o":"m 54 212 l 88 212 q 94 157 110 120 q 126 83 150 61 q 173 39 204 30 q 234 21 269 21 q 310 21 339 31 q 368 41 386 59 q 405 78 414 103 q 422 129 422 160 q 422 198 410 222 q 397 247 374 264 q 352 282 320 294 q 288 307 250 321 q 212 334 177 350 q 143 365 117 387 q 90 410 75 442 q 60 475 60 523 q 60 568 74 606 q 89 644 118 670 q 146 697 189 711 q 232 726 289 726 q 311 726 335 724 q 359 722 383 717 q 406 713 429 707 q 452 701 473 693 l 479 516 l 444 516 q 440 569 425 602 q 410 635 388 654 q 366 673 340 680 q 313 687 285 687 q 248 687 221 678 q 193 669 175 652 q 157 635 148 611 q 139 587 139 557 q 139 521 152 497 q 165 473 188 455 q 211 438 243 425 q 276 411 315 396 q 351 383 385 367 q 419 352 447 329 q 474 306 490 272 q 507 238 507 188 q 507 139 490 101 q 473 62 442 37 q 410 11 365 -3 q 319 -17 262 -17 q 237 -17 211 -14 q 184 -12 158 -7 q 132 -2 107 4 q 82 11 61 19 z"},"}":{"x_min":0,"x_max":506,"ha":506,"o":"m 415 -20 q 382 -20 359 -29 q 336 -38 322 -59 q 308 -80 302 -114 q 296 -147 296 -197 q 296 -226 298 -268 q 299 -310 302 -357 q 305 -404 308 -454 q 311 -504 314 -550 q 316 -596 318 -634 q 320 -672 320 -696 q 320 -757 307 -806 q 294 -855 268 -889 q 242 -924 202 -942 q 163 -961 108 -961 l 108 -922 q 151 -920 176 -904 q 202 -888 215 -863 q 229 -837 233 -804 q 237 -771 237 -734 q 237 -704 235 -660 q 233 -617 231 -566 q 229 -516 226 -463 q 223 -410 221 -362 q 218 -314 217 -274 q 215 -234 215 -209 q 215 -170 220 -138 q 225 -105 237 -79 q 248 -53 267 -34 q 286 -14 313 -1 l 313 1 q 286 14 267 34 q 248 54 237 80 q 225 106 220 138 q 215 171 215 209 q 215 234 217 274 q 218 314 221 362 q 223 410 226 463 q 229 516 231 566 q 233 617 235 660 q 237 704 237 734 q 237 771 233 804 q 229 837 215 863 q 202 888 176 904 q 151 919 108 922 l 108 961 q 163 961 202 942 q 242 924 268 889 q 294 855 307 806 q 320 757 320 696 q 320 672 318 634 q 316 596 314 550 q 311 504 308 454 q 305 404 302 357 q 299 310 298 268 q 296 226 296 197 q 296 147 302 114 q 308 80 322 59 q 336 38 359 29 q 382 20 415 20 z"},"Z":{"x_min":0,"x_max":634,"ha":634,"o":"m 49 0 l 49 30 l 447 670 l 281 670 q 249 670 225 668 q 200 666 182 659 q 164 652 150 640 q 137 627 128 608 q 119 589 112 562 q 105 536 101 499 l 66 499 l 81 709 l 566 709 l 566 679 l 162 39 l 332 39 q 370 39 399 42 q 428 45 449 53 q 471 61 486 75 q 501 89 513 111 q 524 134 532 166 q 540 198 546 242 l 581 242 l 571 0 z"},"x":{"x_min":0,"x_max":474,"ha":474,"o":"m 396 39 l 476 39 l 476 0 l 245 0 l 245 39 l 292 39 l 214 158 l 123 39 l 180 39 l 180 0 l -7 0 l -7 39 l 71 39 l 190 194 l 70 377 l 0 377 l 0 416 l 224 416 l 224 377 l 173 377 l 251 259 l 342 377 l 285 377 l 285 416 l 469 416 l 469 377 l 393 377 l 275 223 z"},")":{"x_min":0,"x_max":491,"ha":491,"o":"m 237 0 q 237 164 220 298 q 204 433 171 545 q 138 658 89 754 q 40 850 -24 936 q -12 953 6 961 q 49 912 90 855 q 130 799 166 732 q 201 665 230 587 q 260 509 281 419 q 302 329 313 224 q 325 120 325 0 q 325 -120 313 -224 q 302 -329 281 -419 q 260 -509 230 -587 q 201 -665 166 -732 q 130 -799 90 -855 q 49 -912 6 -961 q -12 -953 -24 -936 q 40 -850 89 -754 q 138 -658 171 -545 q 204 -433 220 -298 q 237 -164 237 0 z"},"&":{"x_min":0,"x_max":767,"ha":767,"o":"m 596 -14 q 557 -14 522 2 q 487 18 450 53 q 412 22 367 4 q 323 -14 272 -14 q 229 -14 188 0 q 148 14 116 40 q 85 65 66 103 q 46 140 46 188 q 46 231 62 265 q 79 298 104 323 q 129 348 161 366 q 192 384 223 398 q 214 417 206 436 q 198 455 191 474 q 185 494 181 513 q 178 532 178 549 q 178 581 190 610 q 203 639 225 661 q 247 683 278 696 q 310 709 348 709 q 376 709 402 701 q 428 693 448 677 q 468 661 480 636 q 492 611 492 579 q 492 542 477 515 q 462 488 438 468 q 414 448 383 432 q 352 417 320 401 q 334 374 356 339 q 377 304 400 269 q 423 233 445 202 q 467 170 484 149 q 503 173 518 199 q 534 226 545 253 q 556 279 562 305 q 569 330 570 353 l 468 353 l 468 392 l 704 392 l 704 353 l 614 353 q 605 292 579 230 q 553 168 512 116 q 546 79 575 62 q 604 46 631 46 q 653 46 675 55 q 697 64 721 80 q 728 74 732 68 q 737 62 742 53 q 705 16 668 1 q 632 -14 596 -14 z m 421 84 q 409 98 394 118 q 378 138 362 162 q 345 186 328 213 q 311 239 295 265 q 279 292 265 316 q 251 340 241 360 q 220 347 202 332 q 184 316 171 296 q 158 277 150 253 q 143 229 143 198 q 143 157 156 127 q 169 96 191 76 q 213 56 240 46 q 268 36 296 36 q 330 36 362 49 q 393 62 421 84 z m 426 580 q 426 604 419 621 q 412 638 401 649 q 390 660 375 665 q 360 670 344 670 q 326 670 310 664 q 294 658 282 646 q 270 635 263 618 q 256 602 256 581 q 256 555 267 519 q 278 482 303 434 q 329 446 352 460 q 374 474 390 491 q 407 509 416 531 q 426 552 426 580 z"},"_":{"x_min":0,"x_max":446,"ha":446,"o":"m -17 -88 l 463 -88 l 463 -130 l -17 -130 z"},"v":{"x_min":0,"x_max":493,"ha":493,"o":"m 228 -7 l 56 377 l -17 377 l -17 416 l 220 416 l 220 377 l 152 377 l 273 106 l 275 106 l 396 377 l 327 377 l 327 416 l 508 416 l 508 377 l 437 377 l 267 -7 z"},"O":{"x_min":0,"x_max":761,"ha":761,"o":"m 66 348 q 66 436 90 505 q 113 575 156 624 q 198 673 257 700 q 316 726 386 726 q 456 726 512 700 q 569 675 610 627 q 650 580 673 513 q 695 445 695 362 q 695 280 673 210 q 651 141 610 90 q 569 40 510 12 q 451 -17 376 -17 q 306 -17 249 9 q 191 34 151 82 q 110 129 88 197 q 66 264 66 348 z m 172 351 q 172 284 179 233 q 186 183 199 146 q 212 110 230 86 q 249 62 272 48 q 295 34 322 28 q 349 22 378 22 q 408 22 435 28 q 462 34 486 48 q 509 62 528 87 q 547 111 561 149 q 574 186 582 238 q 589 289 589 358 q 589 425 582 476 q 575 526 562 563 q 549 600 530 624 q 512 647 489 662 q 466 676 439 681 q 413 687 383 687 q 353 687 326 681 q 298 675 275 661 q 251 647 232 622 q 213 598 200 561 q 187 523 179 472 q 172 420 172 351 z"},"(":{"x_min":0,"x_max":491,"ha":491,"o":"m 254 0 q 254 -164 271 -298 q 287 -433 320 -545 q 353 -658 402 -754 q 451 -850 515 -936 q 504 -953 485 -961 q 441 -912 401 -855 q 360 -799 325 -732 q 290 -665 260 -587 q 231 -509 210 -419 q 189 -329 177 -224 q 166 -120 166 0 q 166 120 177 224 q 189 329 210 419 q 231 509 260 587 q 290 665 325 732 q 360 799 401 855 q 441 912 485 961 q 503 953 515 936 q 451 850 402 754 q 353 658 320 545 q 287 433 271 298 q 254 164 254 0 z"},"C":{"x_min":0,"x_max":674,"ha":674,"o":"m 606 212 l 599 19 q 576 11 549 4 q 521 -2 494 -7 q 466 -12 439 -14 q 412 -17 388 -17 q 313 -17 254 9 q 194 34 152 81 q 110 128 88 196 q 66 263 66 348 q 66 434 89 504 q 113 574 156 623 q 200 673 261 699 q 323 726 399 726 q 421 726 445 724 q 469 722 493 718 q 518 713 542 708 q 566 702 589 694 l 595 516 l 561 516 q 556 569 541 603 q 526 636 504 655 q 481 673 453 680 q 425 687 393 687 q 361 687 332 681 q 303 675 279 661 q 254 646 234 622 q 214 597 201 560 q 187 522 179 470 q 172 419 172 351 q 172 283 179 232 q 187 182 200 145 q 213 108 233 85 q 252 61 276 47 q 299 33 327 28 q 355 22 386 22 q 423 22 454 31 q 486 40 510 61 q 534 83 550 119 q 566 156 572 212 z"},"W":{"x_min":0,"x_max":1006,"ha":1006,"o":"m 506 363 l 365 -7 l 327 -7 l 84 670 l -13 670 l -13 709 l 272 709 l 272 670 l 185 670 l 374 147 l 375 147 l 483 428 l 396 670 l 314 670 l 314 709 l 599 709 l 599 670 l 498 670 l 686 147 l 688 147 l 889 670 l 791 670 l 791 709 l 1024 709 l 1024 670 l 936 670 l 677 -7 l 640 -7 l 508 363 z"},"A":{"x_min":0,"x_max":691,"ha":691,"o":"m 218 39 l 218 0 l -20 0 l -20 39 l 73 39 l 327 717 l 366 717 l 604 39 l 701 39 l 701 0 l 400 0 l 400 39 l 502 39 l 429 248 l 198 248 l 121 39 z m 316 562 l 213 287 l 415 287 l 318 562 z"},"f":{"x_min":0,"x_max":295,"ha":295,"o":"m 278 718 q 304 718 325 711 q 346 705 360 693 q 375 682 383 667 q 391 651 391 634 q 391 610 376 594 q 362 579 339 579 q 329 579 320 582 q 311 585 303 592 q 296 598 292 607 q 288 617 288 628 q 288 641 293 654 q 299 667 310 677 q 296 682 274 682 q 256 682 240 677 q 224 672 213 656 q 201 639 195 606 q 188 574 188 518 l 188 416 l 295 416 l 295 377 l 188 377 l 188 39 l 266 39 l 266 0 l 27 0 l 27 39 l 100 39 l 100 377 l 27 377 l 27 416 l 100 416 l 100 465 q 100 527 113 575 q 126 622 150 654 q 174 686 207 702 q 239 718 278 718 z"},"Q":{"x_min":0,"x_max":761,"ha":761,"o":"m 66 348 q 66 436 90 506 q 113 576 156 625 q 198 674 257 700 q 316 726 386 726 q 456 726 512 700 q 569 675 610 627 q 650 580 673 513 q 695 445 695 362 q 695 293 679 233 q 664 173 634 126 q 604 79 562 45 q 520 12 466 -3 q 492 -45 513 -72 q 534 -98 553 -112 q 571 -127 588 -132 q 604 -138 619 -138 q 640 -138 662 -129 q 683 -121 706 -105 q 712 -112 717 -118 q 722 -124 728 -133 q 689 -170 653 -185 q 617 -200 581 -200 q 544 -200 515 -187 q 487 -175 462 -151 q 437 -128 413 -94 q 389 -60 363 -16 q 295 -13 240 13 q 186 40 147 87 q 108 134 87 200 q 66 266 66 348 z m 172 351 q 172 284 179 233 q 186 183 199 146 q 212 110 230 86 q 249 62 272 48 q 295 34 322 28 q 349 22 378 22 q 408 22 435 28 q 462 34 486 48 q 509 62 528 87 q 547 111 561 149 q 574 186 582 238 q 589 289 589 358 q 589 425 582 476 q 575 526 562 563 q 549 600 530 624 q 512 647 489 662 q 466 676 439 681 q 412 687 382 687 q 337 687 299 673 q 261 659 232 622 q 204 585 188 520 q 172 454 172 351 z"},"w":{"x_min":0,"x_max":761,"ha":761,"o":"m 502 -7 l 382 289 l 261 -7 l 220 -7 l 61 377 l -12 377 l -12 416 l 226 416 l 226 377 l 156 377 l 266 106 l 268 106 l 393 418 l 422 418 l 548 106 l 550 106 l 657 377 l 589 377 l 589 416 l 771 416 l 771 377 l 700 377 l 543 -7 z"},"-":{"x_min":0,"x_max":374,"ha":374,"o":"m 78 271 l 295 271 l 295 198 l 78 198 z"},"E":{"x_min":0,"x_max":668,"ha":668,"o":"m 225 388 l 289 388 q 321 388 343 390 q 365 393 379 404 q 392 416 399 440 q 406 464 409 508 l 443 508 l 443 219 l 409 219 q 406 263 400 289 q 395 314 381 328 q 368 341 346 344 q 324 348 289 348 l 225 348 l 225 39 l 354 39 q 392 39 421 42 q 450 45 471 53 q 493 61 508 75 q 523 89 535 111 q 546 134 554 166 q 562 198 568 242 l 603 242 l 593 0 l 32 0 l 32 39 l 129 39 l 129 670 l 32 670 l 32 709 l 581 709 l 590 514 l 556 514 q 549 562 538 593 q 527 624 508 641 q 489 658 458 664 q 427 670 379 670 l 225 670 z"},"s":{"x_min":0,"x_max":409,"ha":409,"o":"m 315 278 q 313 310 305 332 q 297 354 283 367 q 270 381 250 387 q 231 393 206 393 q 187 393 171 389 q 155 386 143 378 q 131 371 125 358 q 118 346 118 329 q 118 312 124 301 q 130 290 144 281 q 158 273 180 265 q 202 257 233 247 q 259 238 284 228 q 309 218 328 204 q 348 189 360 168 q 373 147 373 118 q 373 84 357 59 q 342 34 317 18 q 292 2 261 -6 q 229 -14 196 -14 q 178 -14 158 -12 q 139 -10 119 -6 q 100 -3 83 2 q 65 6 52 11 l 49 153 l 83 153 q 85 116 93 91 q 101 65 115 50 q 130 35 151 29 q 171 22 199 22 q 220 22 238 26 q 256 30 269 38 q 282 46 290 59 q 297 72 297 91 q 297 107 292 117 q 286 128 273 136 q 260 145 240 152 q 220 159 192 169 q 165 179 139 189 q 113 200 94 215 q 74 229 62 250 q 51 271 51 302 q 51 335 64 359 q 78 383 101 399 q 124 415 153 422 q 183 429 214 429 q 230 429 248 427 q 266 426 283 423 q 300 420 316 416 q 332 413 345 409 l 349 278 z"},">":{"x_min":0,"x_max":553,"ha":553,"o":"m 423 209 l 65 357 l 82 396 l 489 226 l 489 190 l 82 20 l 65 60 l 423 207 z"},"l":{"x_min":0,"x_max":283,"ha":283,"o":"m 186 39 l 259 39 l 259 0 l 24 0 l 24 39 l 98 39 l 98 670 l 24 670 l 24 709 l 186 709 z"},"8":{"x_min":0,"x_max":576,"ha":576,"o":"m 374 375 q 399 361 426 344 q 452 328 474 305 q 495 283 509 254 q 522 225 522 187 q 522 143 504 106 q 486 70 454 43 q 421 16 378 1 q 334 -14 284 -14 q 239 -14 197 -2 q 155 11 124 34 q 92 58 73 92 q 54 126 54 170 q 54 227 89 272 q 125 318 197 357 l 197 361 q 173 374 151 390 q 128 407 110 428 q 93 449 82 476 q 71 502 71 536 q 71 578 89 611 q 107 644 137 667 q 168 690 209 703 q 250 715 295 715 q 343 715 381 702 q 419 689 446 667 q 472 645 486 615 q 500 585 500 551 q 500 500 468 457 q 435 414 374 377 z m 238 336 q 185 310 157 270 q 130 229 130 177 q 130 142 142 114 q 154 85 176 66 q 197 46 226 35 q 255 24 290 24 q 320 24 347 33 q 375 42 395 58 q 416 74 427 97 q 439 121 439 150 q 439 184 425 209 q 411 234 384 255 q 358 275 321 295 q 284 314 238 336 z m 331 397 q 380 424 410 462 q 439 500 439 549 q 439 578 428 601 q 418 625 399 642 q 380 659 353 668 q 326 677 293 677 q 266 677 240 671 q 215 664 195 650 q 175 636 163 615 q 151 594 151 564 q 151 536 162 515 q 172 494 195 476 q 217 457 250 438 q 284 420 331 397 z"},"\\":{"x_min":0,"x_max":316,"ha":316,"o":"m 311 -158 q 292 -167 271 -170 l 3 714 q 21 725 43 726 z"},"e":{"x_min":0,"x_max":482,"ha":482,"o":"m 427 132 q 412 62 367 24 q 322 -14 250 -14 q 201 -14 162 4 q 124 21 97 51 q 70 81 56 120 q 42 160 42 205 q 42 251 56 292 q 71 333 98 363 q 125 394 163 411 q 201 429 248 429 q 291 429 325 414 q 359 399 383 372 q 407 345 420 307 q 433 270 434 225 l 139 225 q 139 216 139 214 q 139 211 139 210 q 139 153 147 117 q 156 81 171 60 q 187 40 208 33 q 229 25 255 25 q 279 25 300 32 q 321 38 338 52 q 355 66 368 88 q 381 110 389 142 q 399 141 409 138 q 418 136 427 132 z m 335 263 q 333 303 326 328 q 319 354 308 368 q 296 382 280 387 q 264 392 245 392 q 225 392 208 386 q 190 380 177 366 q 163 351 154 326 q 145 301 142 263 z"},"b":{"x_min":0,"x_max":546,"ha":546,"o":"m 159 0 l 90 0 l 90 670 l 17 670 l 17 709 l 178 709 l 178 361 l 180 361 q 202 396 236 413 q 271 429 311 429 q 354 429 389 414 q 424 398 450 369 q 476 341 490 300 q 505 260 505 210 q 505 158 489 117 q 473 75 446 46 q 419 18 384 2 q 348 -14 309 -14 q 269 -14 236 4 q 202 21 180 59 l 177 59 z m 408 209 q 408 265 400 300 q 393 335 378 356 q 364 376 344 383 q 324 391 299 391 q 266 391 243 378 q 220 365 206 342 q 191 318 185 285 q 178 252 178 211 q 178 169 184 139 q 190 109 200 88 q 210 67 223 55 q 236 42 249 36 q 263 29 276 27 q 290 25 300 25 q 324 25 344 32 q 363 40 378 60 q 392 80 400 116 q 408 152 408 209 z"},"%":{"x_min":0,"x_max":894,"ha":894,"o":"m 222 308 q 183 308 153 322 q 122 336 101 362 q 81 388 70 425 q 59 462 59 509 q 59 557 71 595 q 83 634 104 661 q 126 688 158 702 q 190 717 229 717 q 268 717 298 703 q 328 688 348 662 q 369 636 380 599 q 391 562 391 516 q 391 470 380 432 q 370 394 348 366 q 327 339 296 323 q 264 308 222 308 z m 224 337 q 245 337 262 344 q 280 351 292 370 q 305 389 311 424 q 318 459 318 515 q 318 570 312 604 q 305 638 293 657 q 282 676 265 683 q 248 689 227 689 q 205 689 188 683 q 170 676 158 656 q 146 637 139 602 q 132 567 132 511 q 132 457 139 422 q 145 388 157 369 q 168 350 185 344 q 202 337 224 337 z m 667 -14 q 627 -14 597 0 q 566 15 546 41 q 525 67 514 104 q 503 141 503 188 q 503 235 515 274 q 527 312 549 340 q 571 367 603 381 q 634 396 674 396 q 712 396 742 381 q 772 367 793 341 q 813 315 824 278 q 835 241 835 194 q 835 149 825 111 q 814 73 793 45 q 771 18 740 2 q 708 -14 667 -14 z m 668 16 q 689 16 707 22 q 724 29 737 49 q 749 68 756 103 q 762 138 762 194 q 762 249 756 283 q 750 317 738 336 q 726 355 709 362 q 692 368 671 368 q 649 368 632 361 q 615 354 602 335 q 590 316 583 281 q 577 246 577 190 q 577 135 583 101 q 589 67 601 48 q 613 29 630 22 q 646 16 668 16 z m 688 726 q 698 721 705 716 q 712 710 719 704 l 212 -17 q 202 -12 195 -7 q 188 -2 181 5 z"},"m":{"x_min":0,"x_max":821,"ha":821,"o":"m 188 39 l 254 39 l 254 0 l 27 0 l 27 39 l 100 39 l 100 377 l 27 377 l 27 416 l 188 416 l 188 345 l 190 345 q 209 386 243 407 q 276 429 328 429 q 382 429 413 406 q 443 382 453 333 l 455 333 q 474 381 509 405 q 544 429 598 429 q 664 429 696 395 q 728 360 728 296 l 728 39 l 799 39 l 799 0 l 574 0 l 574 39 l 640 39 l 640 310 q 640 349 623 367 q 605 385 573 385 q 549 385 529 375 q 508 364 492 342 q 476 320 467 286 q 458 252 458 205 l 458 39 l 524 39 l 524 0 l 304 0 l 304 39 l 370 39 l 370 311 q 370 349 353 367 q 335 385 303 385 q 279 385 259 375 q 238 364 222 342 q 206 320 197 286 q 188 252 188 205 z"},"#":{"x_min":0,"x_max":565,"ha":565,"o":"m 201 562 q 212 562 223 560 q 233 559 243 556 l 222 400 l 375 400 l 397 562 q 409 562 419 560 q 429 559 439 556 l 418 400 l 501 400 l 501 356 l 412 356 l 392 205 l 475 205 l 475 162 l 386 162 l 364 0 q 341 0 322 5 l 343 162 l 189 162 l 167 0 q 145 0 126 5 l 147 162 l 63 162 l 63 205 l 153 205 l 173 356 l 90 356 l 90 400 l 179 400 z m 195 205 l 349 205 l 370 356 l 216 356 z"},",":{"x_min":0,"x_max":283,"ha":283,"o":"m 95 -142 q 112 -126 128 -110 q 143 -94 155 -77 q 167 -60 173 -42 q 180 -23 180 -3 q 180 4 179 10 q 179 16 178 22 l 175 22 q 167 4 151 -4 q 136 -12 120 -12 q 108 -12 97 -8 q 86 -4 78 4 q 69 11 64 22 q 59 34 59 48 q 59 61 63 73 q 67 86 76 96 q 85 106 98 113 q 111 120 128 120 q 146 120 163 112 q 180 105 194 91 q 208 77 216 56 q 225 35 225 8 q 225 -38 198 -83 q 172 -127 120 -170 q 112 -164 106 -157 q 100 -151 95 -142 z"},"n":{"x_min":0,"x_max":556,"ha":556,"o":"m 188 39 l 254 39 l 254 0 l 27 0 l 27 39 l 100 39 l 100 377 l 27 377 l 27 416 l 188 416 l 188 345 l 190 345 q 210 386 244 407 q 277 429 331 429 q 397 429 430 395 q 463 360 463 296 l 463 39 l 534 39 l 534 0 l 309 0 l 309 39 l 375 39 l 375 310 q 375 349 357 367 q 339 385 306 385 q 281 385 260 375 q 238 364 222 342 q 207 320 197 286 q 188 252 188 205 z"},"h":{"x_min":0,"x_max":553,"ha":553,"o":"m 186 39 l 251 39 l 251 0 l 24 0 l 24 39 l 98 39 l 98 670 l 24 670 l 24 709 l 186 709 l 186 351 l 188 351 q 208 388 241 409 q 275 429 328 429 q 396 429 428 395 q 460 360 460 296 l 460 39 l 531 39 l 531 0 l 307 0 l 307 39 l 373 39 l 373 308 q 373 349 354 367 q 336 385 303 385 q 278 385 257 375 q 236 366 220 345 q 204 325 195 292 q 186 260 186 215 z"},"z":{"x_min":0,"x_max":460,"ha":460,"o":"m 408 163 l 402 0 l 46 0 l 46 29 l 294 375 l 220 375 q 185 375 163 371 q 141 367 127 355 q 112 344 104 321 q 96 298 89 260 l 52 260 l 60 414 l 406 414 l 406 384 l 155 39 l 242 39 q 276 39 298 43 q 320 46 334 59 q 348 72 356 97 q 364 121 371 163 z"},"B":{"x_min":0,"x_max":676,"ha":676,"o":"m 437 372 q 486 364 520 349 q 555 333 576 311 q 598 289 608 260 q 618 232 618 199 q 618 161 604 125 q 590 89 558 62 q 525 34 471 17 q 417 0 337 0 l 32 0 l 32 39 l 129 39 l 129 670 l 32 670 l 32 709 l 325 709 q 399 709 450 697 q 501 684 533 662 q 565 639 579 609 q 593 579 593 543 q 593 515 584 489 q 575 463 556 440 q 538 418 508 401 q 479 384 437 374 z m 225 39 l 329 39 q 380 39 415 47 q 450 55 471 74 q 493 92 502 122 q 511 152 511 197 q 511 237 503 265 q 494 294 471 312 q 448 331 407 340 q 366 349 301 349 l 225 349 z m 225 388 l 282 388 q 340 388 380 395 q 419 402 443 420 q 467 438 478 467 q 488 496 488 539 q 488 572 481 597 q 474 622 456 638 q 437 654 404 662 q 371 670 318 670 l 225 670 z"},"K":{"x_min":0,"x_max":732,"ha":732,"o":"m 244 366 l 543 670 l 469 670 l 469 709 l 699 709 l 699 670 l 600 670 l 331 399 l 649 39 l 725 39 l 725 0 l 456 0 l 456 39 l 529 39 z m 225 39 l 317 39 l 317 0 l 32 0 l 32 39 l 129 39 l 129 670 l 32 670 l 32 709 l 317 709 l 317 670 l 225 670 z"},"R":{"x_min":0,"x_max":672,"ha":672,"o":"m 301 709 q 378 709 432 698 q 485 686 518 665 q 550 643 564 613 q 579 582 579 545 q 579 513 569 484 q 559 455 539 432 q 519 408 489 391 q 458 375 418 366 l 418 364 q 452 356 473 341 q 495 326 509 304 q 522 282 530 254 q 537 226 543 192 q 549 157 553 129 q 558 100 566 79 q 574 59 587 47 q 601 36 625 36 q 629 36 637 36 q 645 37 655 38 l 655 0 q 646 -1 637 -3 q 627 -4 617 -5 q 607 -6 597 -6 q 588 -6 581 -6 q 538 -6 514 3 q 490 12 477 31 q 464 50 458 79 q 453 107 448 147 q 441 205 434 244 q 426 283 413 306 q 400 330 377 340 q 355 350 316 350 l 225 350 l 225 39 l 327 39 l 327 0 l 32 0 l 32 39 l 129 39 l 129 670 l 32 670 l 32 709 z m 225 389 l 290 389 q 342 389 378 398 q 413 407 435 426 q 457 444 466 473 q 475 502 475 543 q 475 578 467 602 q 460 626 440 641 q 420 656 385 663 q 351 670 295 670 l 225 670 z"},"T":{"x_min":0,"x_max":667,"ha":667,"o":"m 48 709 l 621 709 l 632 499 l 598 499 q 591 554 581 587 q 570 621 550 639 q 530 658 499 664 q 468 670 420 670 l 381 670 l 381 39 l 488 39 l 488 0 l 178 0 l 178 39 l 286 39 l 286 670 l 249 670 q 217 670 192 668 q 168 666 150 659 q 131 652 118 640 q 105 627 96 608 q 86 589 80 562 q 73 536 68 499 l 34 499 z"},"P":{"x_min":0,"x_max":624,"ha":624,"o":"m 298 709 q 379 709 435 695 q 490 680 524 654 q 558 628 573 592 q 587 555 587 512 q 587 471 574 432 q 560 393 526 362 q 492 331 435 312 q 378 294 292 294 l 225 294 l 225 39 l 327 39 l 327 0 l 32 0 l 32 39 l 129 39 l 129 670 l 32 670 l 32 709 z m 225 333 l 285 333 q 341 333 379 342 q 417 350 440 371 q 463 391 473 425 q 483 459 483 510 q 483 552 476 582 q 468 612 447 632 q 426 652 389 661 q 352 670 292 670 l 225 670 z"},"|":{"x_min":0,"x_max":435,"ha":435,"o":"m 195 -953 l 195 946 l 239 946 l 239 -953 z"},"t":{"x_min":0,"x_max":354,"ha":354,"o":"m 337 98 q 324 41 294 13 q 264 -14 210 -14 q 183 -14 160 -7 q 138 0 123 15 q 107 30 99 53 q 90 76 90 109 l 90 377 l 17 377 l 17 416 l 90 416 l 90 511 l 178 525 l 178 416 l 305 416 l 305 377 l 178 377 l 178 99 q 178 79 182 66 q 186 53 192 46 q 199 39 208 36 q 218 33 229 33 q 245 33 256 38 q 268 42 276 52 q 285 62 291 76 q 297 90 302 108 q 312 107 320 104 q 329 102 337 98 z"},"M":{"x_min":0,"x_max":929,"ha":929,"o":"m 704 39 l 704 658 l 702 658 l 448 -7 l 409 -7 l 171 657 l 168 657 l 168 39 l 256 39 l 256 0 l 27 0 l 27 39 l 125 39 l 125 670 l 27 670 l 27 709 l 253 709 l 457 145 l 458 145 l 675 709 l 897 709 l 897 670 l 799 670 l 799 39 l 897 39 l 897 0 l 616 0 l 616 39 z"},"g":{"x_min":0,"x_max":497,"ha":497,"o":"m 109 -105 q 101 -119 97 -132 q 93 -145 93 -157 q 93 -176 103 -191 q 113 -207 130 -217 q 148 -227 172 -232 q 196 -237 225 -237 q 265 -237 296 -228 q 327 -219 348 -202 q 370 -186 381 -164 q 392 -142 392 -116 q 392 -95 385 -82 q 377 -68 363 -61 q 350 -54 331 -51 q 312 -48 290 -48 q 273 -48 253 -49 q 233 -49 215 -49 q 196 -50 182 -50 q 167 -50 161 -50 q 133 -50 113 -43 q 93 -37 79 -24 q 65 -12 59 4 q 52 21 52 40 q 52 66 64 95 q 76 123 102 152 q 82 174 71 203 q 60 231 60 264 q 60 297 72 327 q 83 357 106 380 q 128 403 160 416 q 193 429 234 429 q 272 429 302 418 q 332 407 354 387 q 367 401 380 411 q 393 420 404 425 q 416 430 425 432 q 435 434 443 434 q 455 434 464 430 q 473 427 478 421 q 484 415 487 407 q 489 399 489 392 q 489 376 479 364 q 469 351 451 351 q 437 351 425 360 q 412 370 408 388 q 398 384 390 378 q 381 373 373 365 q 388 345 395 320 q 403 296 403 269 q 403 235 391 205 q 379 175 357 152 q 334 129 302 116 q 270 103 229 103 q 199 103 175 110 q 150 117 131 129 q 119 113 112 98 q 105 84 105 71 q 105 56 119 45 q 133 35 167 35 q 172 35 189 35 q 206 36 227 36 q 247 36 267 36 q 287 37 297 37 q 332 37 361 31 q 390 24 411 10 q 432 -5 443 -29 q 455 -53 455 -88 q 455 -132 438 -167 q 420 -201 388 -226 q 357 -250 314 -263 q 271 -276 219 -276 q 174 -276 140 -266 q 105 -257 82 -241 q 59 -226 46 -205 q 34 -185 34 -163 q 34 -142 45 -123 q 56 -103 79 -86 q 88 -90 95 -94 q 102 -99 109 -105 z m 312 268 q 312 303 309 327 q 305 351 296 366 q 287 381 272 388 q 256 395 232 395 q 208 395 193 388 q 177 381 168 365 q 158 350 154 325 q 150 300 150 265 q 150 229 154 205 q 158 181 167 166 q 176 151 192 144 q 207 138 230 138 q 254 138 270 145 q 286 151 295 167 q 305 183 309 207 q 312 232 312 268 z"},"j":{"x_min":0,"x_max":271,"ha":271,"o":"m 183 416 l 183 -41 q 183 -156 142 -216 q 101 -276 26 -276 q 2 -276 -17 -270 q -37 -264 -50 -253 q -63 -242 -71 -228 q -78 -214 -78 -198 q -78 -175 -63 -160 q -49 -145 -27 -145 q -17 -145 -8 -148 q 1 -151 8 -157 q 15 -164 19 -173 q 23 -182 23 -193 q 23 -205 18 -217 q 13 -229 3 -237 q 10 -238 16 -239 q 23 -240 30 -240 q 49 -240 62 -233 q 74 -227 82 -211 q 89 -196 92 -170 q 95 -145 95 -107 l 95 377 l 21 377 l 21 416 z m 139 554 q 126 554 115 558 q 105 562 97 570 q 89 578 84 588 q 80 599 80 612 q 80 638 97 654 q 114 670 139 670 q 164 670 180 655 q 197 639 197 612 q 197 599 193 588 q 188 578 180 570 q 172 562 162 558 q 151 554 139 554 z"},"i":{"x_min":0,"x_max":286,"ha":286,"o":"m 188 39 l 261 39 l 261 0 l 27 0 l 27 39 l 100 39 l 100 377 l 27 377 l 27 416 l 188 416 z m 144 554 q 131 554 121 558 q 110 562 102 570 q 94 578 90 588 q 85 599 85 612 q 85 625 90 635 q 95 646 103 654 q 110 662 121 666 q 132 670 144 670 q 156 670 167 666 q 178 662 186 654 q 194 646 198 636 q 203 625 203 612 q 203 599 198 588 q 193 578 186 570 q 178 562 167 558 q 156 554 144 554 z"},"y":{"x_min":0,"x_max":496,"ha":496,"o":"m 396 377 l 328 377 l 328 416 l 511 416 l 511 377 l 438 377 l 250 -50 q 221 -117 198 -160 q 176 -204 157 -230 q 138 -255 120 -266 q 102 -276 81 -276 q 64 -276 52 -271 q 39 -266 30 -257 q 21 -249 16 -237 q 11 -226 11 -214 q 11 -204 15 -194 q 18 -185 25 -177 q 32 -169 41 -165 q 51 -160 63 -160 q 75 -160 84 -164 q 94 -168 100 -176 q 106 -183 109 -192 q 112 -201 112 -210 q 112 -217 111 -221 l 113 -221 q 132 -204 160 -148 q 188 -92 227 -3 l 57 377 l -17 377 l -17 416 l 221 416 l 221 377 l 153 377 l 274 106 l 276 106 z"},"@":{"x_min":0,"x_max":928,"ha":928,"o":"m 687 414 q 682 393 675 364 q 668 334 660 300 q 652 266 643 228 q 635 190 626 150 q 621 125 617 106 q 614 87 614 74 q 614 53 623 43 q 631 34 650 34 q 665 34 683 40 q 702 46 720 59 q 739 71 756 91 q 774 111 788 138 q 801 166 810 201 q 818 236 818 280 q 818 345 798 398 q 779 452 741 490 q 704 529 650 550 q 596 571 527 571 q 466 571 416 555 q 365 539 324 510 q 284 482 253 442 q 223 403 202 356 q 182 309 171 257 q 161 205 161 150 q 161 76 180 15 q 198 -46 234 -90 q 270 -134 323 -158 q 375 -182 443 -182 q 513 -182 567 -157 q 622 -132 665 -85 q 672 -90 679 -96 q 686 -102 691 -108 q 665 -140 635 -161 q 606 -183 574 -196 q 542 -209 508 -215 q 473 -221 437 -221 q 378 -221 329 -208 q 279 -194 238 -170 q 198 -145 167 -111 q 135 -77 114 -35 q 93 7 82 55 q 71 103 71 154 q 71 215 86 272 q 101 330 128 380 q 156 431 195 474 q 235 516 284 547 q 333 577 392 594 q 451 611 516 611 q 588 611 651 590 q 713 568 760 527 q 806 485 833 424 q 859 363 859 284 q 859 233 849 191 q 838 149 820 117 q 801 84 778 61 q 754 37 728 21 q 702 6 675 -2 q 648 -9 624 -9 q 583 -9 562 10 q 542 30 542 65 q 542 76 543 88 q 545 101 548 113 l 544 114 q 530 89 516 67 q 501 44 484 28 q 467 12 446 2 q 424 -7 397 -7 q 364 -7 340 7 q 316 20 301 42 q 286 64 279 93 q 271 121 271 152 q 271 183 279 216 q 286 249 300 280 q 313 311 333 338 q 354 365 379 385 q 405 406 435 417 q 466 429 501 429 q 533 429 558 418 q 583 407 599 380 l 602 381 l 611 414 z m 582 336 q 582 347 576 356 q 571 366 562 374 q 553 381 541 386 q 528 390 513 390 q 479 390 451 369 q 422 347 401 312 q 380 277 368 233 q 356 188 356 142 q 356 121 359 101 q 362 82 369 67 q 375 53 387 44 q 399 35 416 35 q 442 35 464 54 q 486 74 505 104 q 523 133 538 169 q 552 206 562 239 q 571 272 576 299 q 582 325 582 336 z"},".":{"x_min":0,"x_max":283,"ha":283,"o":"m 142 -14 q 127 -14 114 -9 q 101 -3 92 6 q 83 15 77 27 q 72 40 72 55 q 72 70 77 83 q 83 96 92 105 q 102 115 114 120 q 127 125 142 125 q 156 125 169 120 q 181 115 191 106 q 200 97 206 84 q 211 71 211 56 q 211 41 206 28 q 200 15 191 6 q 181 -3 168 -9 q 156 -14 142 -14 z"},"p":{"x_min":0,"x_max":554,"ha":554,"o":"m 186 354 l 188 354 q 209 393 243 411 q 277 429 319 429 q 361 429 396 414 q 432 398 458 369 q 483 341 498 300 q 512 260 512 210 q 512 158 496 117 q 480 75 454 46 q 427 18 391 2 q 355 -14 315 -14 q 276 -14 243 4 q 209 21 188 59 l 186 59 l 186 -229 l 264 -229 l 264 -268 l 24 -268 l 24 -229 l 98 -229 l 98 377 l 24 377 l 24 416 l 186 416 z m 416 208 q 416 265 408 300 q 400 335 385 356 q 371 376 352 383 q 332 391 309 391 q 275 391 251 376 q 228 362 213 337 q 199 312 192 279 q 186 245 186 206 q 186 166 192 136 q 198 107 208 87 q 218 66 231 54 q 245 42 258 36 q 272 29 285 27 q 298 25 309 25 q 332 25 351 32 q 371 40 385 60 q 399 80 407 115 q 416 151 416 208 z"},"X":{"x_min":0,"x_max":709,"ha":709,"o":"m 616 39 l 703 39 l 703 0 l 412 0 l 412 39 l 501 39 l 329 303 l 129 39 l 216 39 l 216 0 l -15 0 l -15 39 l 74 39 l 303 342 l 88 670 l 1 670 l 1 709 l 292 709 l 292 670 l 203 670 l 368 418 l 558 670 l 474 670 l 474 709 l 698 709 l 698 670 l 614 670 l 394 378 z"},"*":{"x_min":0,"x_max":475,"ha":475,"o":"m 377 592 q 396 592 406 581 q 417 569 417 553 q 417 536 406 525 q 396 515 374 515 q 366 515 357 516 q 348 518 336 520 q 325 521 309 523 q 293 524 271 524 l 263 524 q 278 498 291 481 q 304 464 314 452 q 324 440 330 431 q 335 422 335 411 q 335 394 324 383 q 312 372 295 372 q 271 372 261 396 q 257 403 255 413 q 253 423 251 437 q 249 451 245 469 q 241 487 233 511 q 210 485 196 466 q 183 446 174 433 q 165 419 157 413 q 149 406 137 406 q 119 406 107 418 q 95 430 95 448 q 95 461 102 468 q 109 475 123 482 q 137 490 159 502 q 181 514 211 536 q 188 546 171 552 q 153 557 140 561 q 126 564 116 567 q 106 570 99 574 q 88 580 83 588 q 78 597 78 606 q 78 614 81 622 q 84 629 90 635 q 95 641 103 644 q 110 647 118 647 q 129 647 138 641 q 146 635 158 624 q 169 613 185 597 q 202 582 228 564 q 229 579 229 592 q 230 604 230 615 q 230 632 229 646 q 228 659 228 668 q 228 692 239 703 q 250 714 266 714 q 283 714 295 704 q 307 693 307 676 q 307 666 302 656 q 298 647 292 634 q 285 621 276 603 q 268 584 259 557 q 286 562 303 568 q 321 574 334 580 q 347 585 357 589 q 367 592 377 592 z"},"Y":{"x_min":0,"x_max":670,"ha":670,"o":"m -15 709 l 276 709 l 276 670 l 186 670 l 367 388 l 544 670 l 452 670 l 452 709 l 680 709 l 680 670 l 597 670 l 388 339 l 388 39 l 496 39 l 496 0 l 186 0 l 186 39 l 293 39 l 293 325 l 72 670 l -15 670 z"},"c":{"x_min":0,"x_max":460,"ha":460,"o":"m 426 135 q 410 62 366 24 q 322 -14 251 -14 q 203 -14 164 4 q 125 21 98 51 q 71 81 56 120 q 42 160 42 204 q 42 250 57 292 q 72 333 101 363 q 129 394 169 411 q 208 429 257 429 q 292 429 321 420 q 350 411 371 396 q 392 381 404 361 q 416 341 416 319 q 416 303 410 293 q 405 282 397 276 q 389 270 379 267 q 369 264 360 264 q 336 264 323 279 q 309 294 309 315 q 309 328 315 342 q 321 357 334 370 q 318 383 296 387 q 274 392 256 392 q 233 392 212 386 q 191 380 175 360 q 158 340 148 304 q 139 267 139 206 q 139 149 148 114 q 157 79 173 59 q 188 40 210 32 q 231 25 257 25 q 280 25 300 32 q 321 38 338 52 q 354 66 367 89 q 380 111 388 145 q 398 144 408 141 q 417 139 426 135 z"},"!":{"x_min":0,"x_max":283,"ha":283,"o":"m 152 709 q 163 709 173 706 q 184 702 192 694 q 200 687 206 674 q 211 662 211 645 q 211 631 209 613 q 207 595 203 570 q 199 544 195 511 q 190 478 186 433 q 181 388 176 330 q 172 272 168 199 l 136 199 q 133 272 128 330 q 124 388 119 433 q 114 478 110 511 q 105 544 102 570 q 98 595 96 613 q 94 631 94 645 q 94 662 99 674 q 104 687 113 694 q 121 702 132 706 q 142 709 152 709 z m 153 -14 q 139 -14 126 -9 q 114 -4 105 5 q 96 14 91 26 q 85 38 85 53 q 85 67 91 80 q 96 92 105 101 q 114 110 126 115 q 139 120 153 120 q 167 120 179 115 q 191 110 200 102 q 209 93 215 81 q 220 68 220 54 q 220 39 214 27 q 209 14 200 5 q 191 -4 179 -9 q 167 -14 153 -14 z"},"/":{"x_min":0,"x_max":316,"ha":316,"o":"m 273 726 q 295 725 313 714 l 45 -170 q 24 -167 5 -158 z"},"[":{"x_min":0,"x_max":474,"ha":474,"o":"m 176 -946 l 176 946 l 396 946 l 396 902 l 259 902 l 259 -902 l 396 -902 l 396 -946 z"},"6":{"x_min":0,"x_max":581,"ha":581,"o":"m 173 361 q 188 383 207 396 q 225 409 244 417 q 264 424 282 427 q 301 429 316 429 q 359 429 397 413 q 435 397 462 369 q 490 341 506 302 q 522 263 522 216 q 522 173 508 131 q 494 90 465 58 q 437 25 395 6 q 353 -14 297 -14 q 251 -14 209 2 q 168 18 136 53 q 105 89 87 148 q 68 207 68 292 q 68 346 76 399 q 83 451 99 498 q 114 545 137 585 q 160 625 191 654 q 221 683 260 699 q 298 715 344 715 q 375 715 404 708 q 432 700 454 687 q 476 673 489 654 q 502 634 502 610 q 502 595 497 585 q 492 574 484 568 q 477 561 467 558 q 457 555 447 555 q 424 555 409 570 q 395 584 395 605 q 395 618 401 633 q 407 647 420 660 q 412 666 402 670 q 392 673 382 675 q 372 677 362 678 q 353 678 346 678 q 326 678 306 674 q 287 670 268 658 q 250 646 233 624 q 217 602 204 567 q 191 532 182 481 q 173 431 170 362 z m 303 23 q 330 23 352 33 q 374 42 389 64 q 405 86 413 123 q 421 159 421 214 q 421 265 414 299 q 406 333 392 354 q 377 375 356 384 q 335 392 308 392 q 280 392 255 383 q 230 375 212 354 q 193 333 183 297 q 172 262 172 208 q 172 176 177 143 q 183 110 197 84 q 211 57 237 40 q 262 23 303 23 z"},"r":{"x_min":0,"x_max":381,"ha":381,"o":"m 266 0 l 27 0 l 27 39 l 100 39 l 100 377 l 27 377 l 27 416 l 188 416 l 188 340 l 190 340 q 199 359 212 375 q 225 391 240 403 q 256 415 273 421 q 291 427 309 427 q 338 427 357 410 q 376 393 376 363 q 376 336 362 321 q 347 306 324 306 q 299 306 286 320 q 273 334 273 356 q 273 367 278 380 q 259 374 242 359 q 226 344 214 321 q 202 299 195 269 q 188 240 188 204 l 188 39 l 266 39 z"},"2":{"x_min":0,"x_max":558,"ha":558,"o":"m 49 34 q 106 73 153 106 q 199 140 234 169 q 270 199 295 226 q 320 254 336 282 q 352 310 360 341 q 367 371 367 407 q 367 449 358 475 q 348 500 333 514 q 317 528 298 533 q 279 538 259 538 q 227 538 198 528 q 170 519 149 500 q 163 486 170 469 q 178 452 178 436 q 178 414 163 398 q 149 383 122 383 q 109 383 99 386 q 88 390 80 397 q 72 405 68 416 q 63 426 63 440 q 63 466 78 490 q 92 515 119 534 q 146 553 185 564 q 223 576 270 576 q 316 576 353 564 q 389 553 415 531 q 440 510 453 480 q 467 450 467 412 q 467 380 457 351 q 447 322 430 295 q 414 268 390 244 q 367 219 340 196 q 313 173 284 152 q 255 130 225 109 l 182 78 l 183 76 l 343 76 q 376 76 396 79 q 415 82 426 93 q 438 104 443 124 q 449 145 455 181 l 492 181 l 482 0 l 49 0 z"},"{":{"x_min":0,"x_max":506,"ha":506,"o":"m 91 20 q 124 20 147 29 q 170 38 184 59 q 198 80 204 114 q 210 147 210 197 q 210 226 208 268 q 207 310 204 357 q 201 404 198 454 q 195 504 192 550 q 189 596 188 634 q 186 672 186 696 q 186 757 199 806 q 211 855 238 889 q 264 924 303 942 q 343 961 397 961 l 397 922 q 355 919 330 904 q 304 888 291 863 q 277 837 273 804 q 269 771 269 734 q 269 704 271 660 q 272 617 275 566 q 277 516 280 463 q 283 410 285 362 q 288 314 289 274 q 291 234 291 209 q 291 171 286 138 q 281 106 269 80 q 258 54 239 34 q 220 14 193 1 l 193 -1 q 220 -14 239 -34 q 258 -53 269 -79 q 281 -105 286 -138 q 291 -170 291 -209 q 291 -234 289 -274 q 288 -314 285 -362 q 283 -410 280 -463 q 277 -516 275 -566 q 272 -617 271 -660 q 269 -704 269 -734 q 269 -771 273 -804 q 277 -837 291 -863 q 304 -888 330 -904 q 355 -920 397 -922 l 397 -961 q 343 -961 303 -942 q 264 -924 238 -889 q 211 -855 199 -806 q 186 -757 186 -696 q 186 -672 188 -634 q 189 -596 192 -550 q 195 -504 198 -454 q 201 -404 204 -357 q 207 -310 208 -268 q 210 -226 210 -197 q 210 -147 204 -114 q 198 -80 184 -59 q 170 -38 147 -29 q 124 -20 91 -20 z"},"9":{"x_min":0,"x_max":569,"ha":569,"o":"m 406 202 q 391 181 373 168 q 354 155 335 148 q 316 141 298 139 q 280 137 266 137 q 221 137 183 152 q 145 167 116 195 q 88 223 72 262 q 56 301 56 348 q 56 392 71 433 q 85 474 113 506 q 141 538 183 557 q 226 576 281 576 q 326 576 367 561 q 409 545 440 509 q 472 473 491 412 q 510 351 510 260 q 510 209 504 159 q 497 109 483 63 q 469 18 447 -21 q 424 -61 393 -89 q 362 -118 322 -135 q 282 -151 231 -151 q 191 -151 161 -141 q 131 -131 111 -116 q 91 -100 81 -81 q 71 -61 71 -42 q 71 -26 76 -16 q 82 -5 90 2 q 98 9 108 13 q 119 16 130 16 q 143 16 154 11 q 164 7 171 -1 q 178 -9 182 -19 q 186 -29 186 -40 q 186 -55 178 -71 q 171 -86 157 -96 q 166 -103 176 -106 q 187 -109 197 -111 q 207 -112 214 -113 q 222 -113 226 -113 q 250 -113 273 -109 q 295 -105 314 -94 q 333 -83 349 -62 q 365 -41 377 -6 q 389 29 397 80 q 405 131 409 202 z m 274 539 q 247 539 225 529 q 204 520 188 498 q 173 476 165 440 q 157 403 157 349 q 157 298 165 264 q 172 230 187 210 q 202 190 223 182 q 244 174 271 174 q 299 174 324 182 q 349 190 367 210 q 385 230 396 264 q 407 298 407 350 q 407 384 401 418 q 395 452 380 479 q 365 505 339 522 q 313 539 274 539 z"}," ":{"x_min":0,"x_max":259,"ha":259,"o":""},"I":{"x_min":0,"x_max":354,"ha":354,"o":"m 225 670 l 225 39 l 322 39 l 322 0 l 32 0 l 32 39 l 129 39 l 129 670 l 32 670 l 32 709 l 322 709 l 322 670 z"},"H":{"x_min":0,"x_max":776,"ha":776,"o":"m 129 39 l 129 670 l 32 670 l 32 709 l 322 709 l 322 670 l 225 670 l 225 388 l 551 388 l 551 670 l 454 670 l 454 709 l 744 709 l 744 670 l 646 670 l 646 39 l 744 39 l 744 0 l 454 0 l 454 39 l 551 39 l 551 348 l 225 348 l 225 39 l 322 39 l 322 0 l 32 0 l 32 39 z"},"4":{"x_min":0,"x_max":573,"ha":573,"o":"m 39 108 l 382 569 l 427 569 l 427 131 l 539 131 l 535 67 l 427 67 l 427 -85 l 336 -85 l 336 67 l 39 67 z m 334 437 l 107 131 l 336 131 l 336 436 z"},"~":{"x_min":0,"x_max":553,"ha":553,"o":"m 484 272 q 482 233 473 206 q 463 180 449 163 q 434 147 415 140 q 396 133 375 133 q 355 133 339 138 q 323 144 310 152 q 296 160 285 171 q 273 182 263 192 q 242 213 223 226 q 205 240 181 240 q 168 240 156 235 q 145 230 135 219 q 125 208 118 188 q 111 169 107 141 l 68 144 q 70 187 83 214 q 95 242 112 257 q 129 272 148 278 q 167 283 184 283 q 203 283 218 278 q 233 273 246 266 q 259 258 271 248 q 283 237 294 227 q 304 218 314 209 q 324 200 334 193 q 345 186 356 182 q 368 177 381 177 q 390 177 400 180 q 410 184 419 194 q 428 205 436 224 q 443 244 446 276 z"},"D":{"x_min":0,"x_max":740,"ha":740,"o":"m 32 0 l 32 39 l 129 39 l 129 670 l 32 670 l 32 709 l 327 709 q 425 709 492 685 q 559 661 599 615 q 640 570 657 506 q 674 442 674 363 q 674 317 668 273 q 662 228 647 188 q 632 147 606 113 q 581 79 541 53 q 501 28 447 14 q 392 0 319 0 z m 225 39 l 313 39 q 388 39 438 54 q 487 68 516 105 q 545 142 557 204 q 568 267 568 362 q 568 415 565 458 q 561 501 551 536 q 542 570 524 595 q 507 621 480 637 q 453 654 414 662 q 375 670 323 670 l 225 670 z"},"^":{"x_min":0,"x_max":499,"ha":499,"o":"m 425 342 l 250 659 l 248 659 l 73 342 l 24 342 l 231 714 l 267 714 l 474 342 z"},"0":{"x_min":0,"x_max":590,"ha":590,"o":"m 291 -14 q 234 -14 190 7 q 146 27 116 64 q 85 102 70 156 q 54 209 54 276 q 54 345 71 401 q 88 456 120 495 q 152 534 198 555 q 244 576 301 576 q 356 576 400 555 q 444 535 474 498 q 504 460 520 406 q 536 353 536 287 q 536 221 521 166 q 505 111 474 71 q 443 31 397 9 q 352 -14 291 -14 z m 293 24 q 314 24 333 29 q 352 33 368 43 q 384 54 396 73 q 409 91 418 120 q 426 149 431 189 q 436 229 436 284 q 436 363 426 413 q 416 462 398 490 q 380 518 355 528 q 329 538 297 538 q 265 538 239 528 q 212 518 193 489 q 175 461 165 410 q 154 359 154 278 q 154 226 159 186 q 163 146 171 118 q 180 90 192 72 q 204 54 219 43 q 234 33 253 29 q 271 24 293 24 z"},"F":{"x_min":0,"x_max":621,"ha":621,"o":"m 225 670 l 225 373 l 289 373 q 321 373 343 375 q 365 378 379 390 q 392 401 399 426 q 406 451 409 496 l 443 496 l 443 202 l 409 202 q 406 247 400 273 q 395 299 381 313 q 368 326 346 330 q 324 333 289 333 l 225 333 l 225 39 l 327 39 l 327 0 l 32 0 l 32 39 l 129 39 l 129 670 l 32 670 l 32 709 l 576 709 l 586 504 l 552 504 q 546 557 535 589 q 524 622 505 640 q 485 658 453 664 q 422 670 375 670 z"},"`":{"x_min":0,"x_max":391,"ha":391,"o":"m 42 669 q 78 703 114 718 l 234 516 q 229 510 223 505 q 217 501 210 498 z"},"k":{"x_min":0,"x_max":546,"ha":546,"o":"m 186 39 l 256 39 l 256 0 l 24 0 l 24 39 l 98 39 l 98 670 l 24 670 l 24 709 l 186 709 z m 207 227 l 354 377 l 283 377 l 283 416 l 505 416 l 505 377 l 407 377 l 292 257 l 482 39 l 542 39 l 542 0 l 305 0 l 305 39 l 371 39 z"},"u":{"x_min":0,"x_max":551,"ha":551,"o":"m 365 377 l 294 377 l 294 416 l 453 416 l 453 39 l 526 39 l 526 0 l 365 0 l 365 62 l 363 62 q 342 23 310 5 q 278 -14 228 -14 q 158 -14 124 20 q 90 54 90 119 l 90 377 l 20 377 l 20 416 l 178 416 l 178 104 q 178 65 197 48 q 215 30 249 30 q 273 30 294 39 q 315 48 331 69 q 347 89 356 123 q 365 156 365 204 z"},"]":{"x_min":0,"x_max":474,"ha":474,"o":"m 78 -946 l 78 -902 l 215 -902 l 215 902 l 78 902 l 78 946 l 298 946 l 298 -946 z"},"U":{"x_min":0,"x_max":733,"ha":733,"o":"m 217 229 q 217 188 221 150 q 225 113 241 85 q 257 58 291 41 q 324 25 384 25 q 444 25 481 42 q 519 59 539 88 q 559 118 566 158 q 573 198 573 245 l 573 670 l 475 670 l 475 709 l 714 709 l 714 670 l 617 670 l 617 250 q 617 185 606 135 q 595 85 567 52 q 540 18 492 1 q 445 -17 372 -17 q 306 -17 259 -2 q 211 12 181 42 q 151 71 136 117 q 122 164 122 227 l 122 670 l 24 670 l 24 709 l 315 709 l 315 670 l 217 670 z"},"o":{"x_min":0,"x_max":508,"ha":508,"o":"m 42 204 q 42 250 56 291 q 70 332 98 363 q 126 394 166 411 q 207 429 258 429 q 309 429 348 412 q 387 395 413 365 q 439 335 453 295 q 466 256 466 211 q 466 166 452 125 q 438 83 410 53 q 382 22 342 4 q 301 -14 250 -14 q 199 -14 160 4 q 121 21 95 51 q 68 81 55 120 q 42 160 42 204 z m 138 206 q 138 153 146 118 q 153 83 167 62 q 181 41 203 32 q 224 23 253 23 q 281 23 303 32 q 325 41 340 62 q 354 83 362 119 q 370 155 370 209 q 370 263 362 298 q 355 333 341 354 q 327 375 305 384 q 283 392 255 392 q 226 392 204 383 q 183 375 168 353 q 153 332 146 296 q 138 260 138 206 z"},"N":{"x_min":0,"x_max":752,"ha":752,"o":"m 632 -7 l 593 -7 l 171 647 l 168 647 l 168 39 l 256 39 l 256 0 l 27 0 l 27 39 l 125 39 l 125 670 l 27 670 l 27 709 l 245 709 l 586 181 l 588 182 l 588 670 l 491 670 l 491 709 l 730 709 l 730 670 l 632 670 z"},"+":{"x_min":0,"x_max":553,"ha":553,"o":"m 489 229 l 489 187 l 298 187 l 298 -5 l 255 -5 l 255 187 l 63 187 l 63 229 l 255 229 l 255 421 l 298 421 l 298 229 z"},"G":{"x_min":0,"x_max":731,"ha":731,"o":"m 602 29 q 578 17 551 8 q 523 0 496 -6 q 468 -11 440 -14 q 413 -17 390 -17 q 313 -17 253 9 q 193 34 152 81 q 110 128 88 196 q 66 263 66 348 q 66 434 90 504 q 114 574 158 623 q 203 673 265 699 q 328 726 406 726 q 450 726 500 718 q 551 709 596 694 l 602 516 l 568 516 q 563 569 548 603 q 533 636 511 655 q 488 673 460 680 q 431 687 399 687 q 366 687 337 681 q 307 675 282 661 q 256 646 236 622 q 216 597 201 560 q 187 522 179 470 q 172 419 172 351 q 172 283 179 233 q 186 182 199 146 q 213 110 232 86 q 251 62 275 48 q 299 35 328 29 q 356 23 388 23 q 419 23 449 26 q 479 29 506 39 l 506 255 l 399 255 l 399 294 l 689 294 l 689 255 l 602 255 z"},"q":{"x_min":0,"x_max":546,"ha":546,"o":"m 456 416 l 456 -229 l 529 -229 l 529 -268 l 290 -268 l 290 -229 l 368 -229 l 368 59 l 366 59 q 343 20 309 3 q 276 -14 236 -14 q 194 -14 158 2 q 122 18 96 46 q 70 75 56 115 q 42 155 42 205 q 42 257 57 298 q 73 340 100 369 q 127 398 162 414 q 198 429 237 429 q 278 429 312 411 q 345 392 366 354 l 369 354 l 389 416 z m 138 207 q 138 151 146 115 q 154 80 168 60 q 183 40 202 32 q 222 25 245 25 q 304 25 336 70 q 368 115 368 208 q 368 249 362 278 q 355 308 345 328 q 335 349 322 361 q 309 373 295 380 q 282 386 268 388 q 255 391 245 391 q 222 391 203 383 q 183 376 169 356 q 155 336 146 300 q 138 264 138 207 z"},"d":{"x_min":0,"x_max":554,"ha":554,"o":"m 138 207 q 138 151 146 116 q 154 81 168 60 q 182 40 202 32 q 222 25 245 25 q 282 25 306 41 q 330 57 344 83 q 357 110 363 143 q 368 177 368 211 q 368 261 359 296 q 350 330 334 351 q 318 372 296 381 q 273 391 247 391 q 224 391 204 383 q 184 376 169 356 q 154 335 146 300 q 138 264 138 207 z m 456 39 l 529 39 l 529 0 l 368 0 l 368 59 l 366 59 q 354 38 339 24 q 324 10 307 2 q 291 -7 272 -10 q 254 -14 236 -14 q 189 -14 153 4 q 117 21 92 51 q 67 80 54 120 q 42 159 42 204 q 42 251 56 292 q 70 333 96 364 q 122 394 158 412 q 195 429 239 429 q 282 429 314 411 q 347 394 366 361 l 368 361 l 368 670 l 290 670 l 290 709 l 456 709 z"},"1":{"x_min":0,"x_max":371,"ha":371,"o":"m 234 562 l 234 39 l 342 39 l 342 0 l 37 0 l 37 39 l 144 39 l 144 522 l 27 522 l 27 562 z"},"5":{"x_min":0,"x_max":552,"ha":552,"o":"m 123 233 q 104 233 86 240 l 105 562 l 456 562 l 451 480 l 143 480 l 130 285 l 132 284 q 163 298 196 305 q 229 312 260 312 q 311 312 355 295 q 399 278 431 247 q 462 217 480 175 q 499 133 499 83 q 499 36 482 -6 q 465 -48 433 -81 q 400 -113 351 -132 q 302 -151 238 -151 q 186 -151 149 -139 q 112 -127 88 -109 q 64 -90 53 -69 q 42 -47 42 -27 q 42 -14 46 -3 q 50 8 58 17 q 66 25 77 30 q 88 35 102 35 q 113 35 124 32 q 134 28 142 21 q 150 14 155 3 q 160 -7 160 -22 q 160 -39 152 -55 q 145 -70 129 -82 q 141 -91 155 -97 q 169 -104 183 -107 q 197 -110 210 -112 q 224 -113 234 -113 q 252 -113 272 -110 q 292 -106 310 -98 q 328 -90 344 -77 q 360 -63 372 -42 q 384 -21 391 7 q 397 36 397 74 q 397 129 383 166 q 369 203 346 225 q 323 247 294 256 q 264 266 233 266 q 200 266 172 257 q 144 248 123 233 z"}}}
